<svg width="16" height="16" viewBox="0 0 16 16" fill="none" xmlns="http://www.w3.org/2000/svg">
<path d="M15.8045 14.8619L11.2545 10.312C12.1358 9.22335 12.6665 7.84001 12.6665 6.33337C12.6665 2.84141 9.82519 9.15527e-05 6.33322 9.15527e-05C2.84125 9.15527e-05 -3.05176e-05 2.84138 -3.05176e-05 6.33334C-3.05176e-05 9.82531 2.84129 12.6666 6.33325 12.6666C7.83989 12.6666 9.22322 12.136 10.3119 11.2546L14.8618 15.8046C14.9918 15.9346 15.1625 15.9999 15.3332 15.9999C15.5038 15.9999 15.6745 15.9346 15.8045 15.8046C16.0652 15.5439 16.0652 15.1226 15.8045 14.8619ZM6.33325 11.3333C3.57593 11.3333 1.3333 9.09066 1.3333 6.33334C1.3333 3.57603 3.57593 1.33339 6.33325 1.33339C9.09057 1.33339 11.3332 3.57603 11.3332 6.33334C11.3332 9.09066 9.09054 11.3333 6.33325 11.3333Z" fill="white"/>
</svg>
